<?xml version="1.0" standalone="no"?><!DOCTYPE svg PUBLIC "-//W3C//DTD SVG 1.1//EN" "http://www.w3.org/Graphics/SVG/1.1/DTD/svg11.dtd"><svg height="292" node-id="1" sillyvg="true" template-height="292" template-width="293" version="1.1" viewBox="0 0 293 292" width="293" xmlns="http://www.w3.org/2000/svg" xmlns:xlink="http://www.w3.org/1999/xlink"><defs node-id="118"><linearGradient gradientUnits="objectBoundingBox" id="linearGradient-1" node-id="7" spreadMethod="pad" x1="0.5" x2="0.5" y1="0" y2="1"><stop offset="0" stop-color="#59d0fc"></stop><stop offset="1" stop-color="#4b79ff"></stop></linearGradient><linearGradient gradientUnits="objectBoundingBox" id="linearGradient-2" node-id="10" spreadMethod="pad" x1="0.5" x2="0.5" y1="0" y2="1"><stop offset="0" stop-color="#59d0fc" stop-opacity="0"></stop><stop offset="1" stop-color="#4b79ff"></stop></linearGradient><linearGradient gradientUnits="objectBoundingBox" id="linearGradient-3" node-id="13" spreadMethod="pad" x1="0.09756936" x2="0.5" y1="0.40568408" y2="0.7773164"><stop offset="0" stop-color="#59d0fc"></stop><stop offset="1" stop-color="#4b79ff"></stop></linearGradient><linearGradient gradientUnits="objectBoundingBox" id="linearGradient-4" node-id="16" spreadMethod="pad" x1="0.5" x2="0.5" y1="0" y2="1"><stop offset="0" stop-color="#59d0fc"></stop><stop offset="1" stop-color="#4b79ff"></stop></linearGradient><linearGradient gradientUnits="objectBoundingBox" id="linearGradient-5" node-id="19" spreadMethod="pad" x1="0.5" x2="0.5" y1="0" y2="1"><stop offset="0" stop-color="#59d0fc"></stop><stop offset="1" stop-color="#4b79ff"></stop></linearGradient><linearGradient gradientUnits="objectBoundingBox" id="linearGradient-6" node-id="22" spreadMethod="pad" x1="0.5" x2="0.5" y1="0" y2="1"><stop offset="0" stop-color="#59d0fc"></stop><stop offset="1" stop-color="#4b79ff"></stop></linearGradient><linearGradient gradientUnits="objectBoundingBox" id="linearGradient-7" node-id="25" spreadMethod="pad" x1="0.5" x2="0.5" y1="0" y2="1"><stop offset="0" stop-color="#59d0fc"></stop><stop offset="1" stop-color="#4b79ff"></stop></linearGradient><linearGradient gradientUnits="objectBoundingBox" id="linearGradient-8" node-id="28" spreadMethod="pad" x1="0.5" x2="0.5" y1="0" y2="1"><stop offset="0" stop-color="#59d0fc"></stop><stop offset="1" stop-color="#4b79ff"></stop></linearGradient><linearGradient gradientUnits="objectBoundingBox" id="linearGradient-9" node-id="31" spreadMethod="pad" x1="0.5" x2="0.5" y1="0" y2="1"><stop offset="0" stop-color="#59d0fc"></stop><stop offset="1" stop-color="#4b79ff"></stop></linearGradient></defs><g node-id="173"><g node-id="174"><g node-id="175"><path d="M 267.00 235.38 L 266.74 238.99 L 266.04 242.52 L 264.87 246.01 L 263.22 249.47 L 261.06 252.92 L 257.97 256.82 L 254.23 260.66 L 249.78 264.44 L 244.52 268.15 L 239.15 271.38 L 233.19 274.47 L 226.59 277.40 L 219.30 280.17 L 212.05 282.51 L 204.32 284.61 L 196.09 286.46 L 187.32 288.05 L 178.64 289.25 L 169.61 290.13 L 160.24 290.68 L 150.50 290.88 L 140.76 290.68 L 131.39 290.13 L 122.36 289.25 L 113.68 288.05 L 104.91 286.46 L 96.68 284.61 L 88.95 282.51 L 81.70 280.17 L 74.41 277.40 L 67.81 274.47 L 61.85 271.38 L 56.48 268.15 L 51.22 264.44 L 46.77 260.66 L 43.03 256.82 L 39.94 252.92 L 37.78 249.47 L 36.13 246.01 L 34.96 242.52 L 34.26 238.99 L 34.00 235.38 L 34.26 231.76 L 34.96 228.23 L 36.13 224.74 L 37.78 221.28 L 39.94 217.83 L 43.03 213.93 L 46.77 210.09 L 51.22 206.31 L 56.48 202.60 L 61.85 199.37 L 67.81 196.28 L 74.41 193.35 L 81.70 190.58 L 88.95 188.24 L 96.68 186.14 L 104.91 184.29 L 113.68 182.70 L 122.36 181.50 L 131.39 180.62 L 140.76 180.07 L 150.50 179.88 L 160.24 180.07 L 169.61 180.62 L 178.64 181.50 L 187.32 182.70 L 196.09 184.29 L 204.32 186.14 L 212.05 188.24 L 219.30 190.58 L 226.59 193.35 L 233.19 196.28 L 239.15 199.37 L 244.52 202.60 L 249.78 206.31 L 254.23 210.09 L 257.97 213.93 L 261.06 217.83 L 263.22 221.28 L 264.87 224.74 L 266.04 228.23 L 266.74 231.76 L 267.00 235.38 Z" fill="url(#linearGradient-1)" fill-opacity="0.18977864" fill-rule="evenodd" group-id="1,2,3" id="椭圆形" node-id="40" stroke="none" target-height="111" target-width="233" target-x="34" target-y="179.88"></path></g><g node-id="176"><path d="M 34.00 149.88 L 34.00 235.38 L 33.88 238.00 L 34.20 240.82 L 35.00 243.85 L 36.36 247.16 L 38.02 250.20 L 40.18 253.36 L 42.89 256.67 L 46.23 260.14 L 49.67 263.24 L 53.66 266.36 L 58.25 269.50 L 63.48 272.66 L 68.71 275.43 L 74.51 278.10 L 80.92 280.65 L 88.00 283.08 L 94.98 285.10 L 102.56 286.90 L 110.77 288.46 L 119.66 289.75 L 128.37 290.62 L 137.70 291.15 L 147.68 291.29 L 158.36 291.02 L 169.06 290.31 L 178.80 289.32 L 187.64 288.09 L 195.65 286.63 L 206.44 284.13 L 215.79 281.42 L 223.83 278.54 L 231.73 275.15 L 238.39 271.80 L 243.95 268.50 L 249.32 264.80 L 253.63 261.39 L 257.04 258.24 L 260.24 254.81 L 262.55 251.92 L 264.14 249.50 L 265.50 246.88 L 266.13 245.14 L 266.27 244.03 L 266.27 149.88 L 266.27 5.00 L 34.00 5.00 L 34.00 149.88 Z" fill="url(#linearGradient-2)" fill-opacity="0.25079426" fill-rule="evenodd" group-id="1,2,4" id="路径-40复制" node-id="41" stroke="none" target-height="286.29" target-width="232.38998" target-x="33.88" target-y="5"></path></g><path d="M 141.01 222.61 L 187.56 172.19 L 246.24 231.97 L 234.69 236.58 L 224.86 240.09 L 216.56 242.66 L 209.61 244.42 L 199.68 246.24 L 184.36 248.30 L 162.00 250.56 L 141.01 222.61 Z" fill="url(#linearGradient-3)" fill-rule="evenodd" group-id="1,2" id="路径-43" node-id="42" stroke="url(#linearGradient-4)" stroke-linecap="butt" stroke-width="2" target-height="78.369995" target-width="105.23001" target-x="141.01" target-y="172.19"></path><path d="M 68.18 234.35 L 118.78 194.63 L 163.31 250.56 L 144.70 250.47 L 130.26 249.95 L 119.30 249.09 L 111.20 248.01 L 103.19 246.32 L 93.52 243.61 L 81.93 239.69 L 68.18 234.35 Z" fill="url(#linearGradient-5)" fill-rule="evenodd" group-id="1,2" id="路径-42" node-id="43" stroke="url(#linearGradient-5)" stroke-linecap="butt" stroke-width="2" target-height="55.929993" target-width="95.13" target-x="68.18" target-y="194.63"></path><path d="M 34.00 109.10 L 34.00 206.25 L 39.04 212.11 L 44.44 217.54 L 50.21 222.56 L 56.38 227.17 L 62.97 231.39 L 69.99 235.21 L 77.48 238.64 L 85.46 241.67 L 93.98 244.30 L 103.06 246.49 L 112.74 248.24 L 123.07 249.52 L 134.09 250.30 L 145.84 250.56 L 158.36 250.25 L 171.50 249.43 L 183.18 248.37 L 193.52 247.08 L 202.62 245.62 L 212.09 243.70 L 220.32 241.68 L 227.42 239.56 L 233.51 237.37 L 239.78 234.69 L 245.05 232.01 L 249.44 229.36 L 253.07 226.74 L 256.60 223.65 L 259.43 220.67 L 261.64 217.78 L 263.31 214.95 L 264.68 211.85 L 265.61 208.89 L 266.13 206.03 L 266.27 203.25 L 266.27 109.10 L 264.39 113.58 L 262.00 117.84 L 259.07 121.88 L 255.56 125.73 L 251.44 129.40 L 246.63 132.90 L 241.07 136.21 L 234.68 139.32 L 227.37 142.21 L 219.04 144.87 L 209.59 147.24 L 198.92 149.30 L 186.90 150.99 L 173.43 152.28 L 158.36 153.11 L 144.20 153.33 L 131.15 152.96 L 119.15 152.04 L 108.11 150.61 L 97.97 148.73 L 88.67 146.41 L 80.15 143.68 L 72.34 140.59 L 65.20 137.13 L 58.68 133.33 L 52.73 129.18 L 47.31 124.69 L 42.40 119.86 L 37.97 114.67 L 34.00 109.10 Z" fill="url(#linearGradient-6)" fill-opacity="0.2" fill-rule="evenodd" group-id="1,2" id="路径-40" node-id="44" stroke="url(#linearGradient-6)" stroke-linecap="butt" stroke-width="2" target-height="141.45999" target-width="232.26999" target-x="34" target-y="109.1"></path><path d="M 34.00 109.10 L 38.57 102.62 L 43.29 96.81 L 48.15 91.63 L 53.16 87.03 L 58.33 82.97 L 63.66 79.45 L 69.16 76.42 L 74.86 73.88 L 74.86 170.82 L 66.90 174.03 L 60.05 177.34 L 54.21 180.72 L 49.27 184.16 L 45.13 187.66 L 41.71 191.22 L 38.94 194.84 L 36.75 198.54 L 35.12 202.33 L 34.00 206.25" fill="url(#linearGradient-7)" fill-opacity="0.056133047" fill-rule="evenodd" group-id="1,2,5" id="路径-41" node-id="45" stroke="url(#linearGradient-7)" stroke-dasharray="6 6" stroke-linecap="butt" stroke-opacity="0.33019438" stroke-width="2" target-height="132.37" target-width="40.86" target-x="34" target-y="73.88"></path><path d="M 266.67 109.10 L 262.10 102.62 L 257.38 96.81 L 252.52 91.63 L 247.51 87.03 L 242.34 82.97 L 237.01 79.45 L 231.51 76.42 L 225.81 73.88 L 225.81 170.82 L 233.77 174.03 L 240.62 177.34 L 246.46 180.72 L 251.40 184.16 L 255.54 187.66 L 258.96 191.22 L 261.73 194.84 L 263.91 198.54 L 265.55 202.33 L 266.67 206.25" fill="url(#linearGradient-7)" fill-opacity="0.056133047" fill-rule="evenodd" group-id="1,2,6" id="路径-41复制" node-id="46" stroke="url(#linearGradient-7)" stroke-dasharray="6 6" stroke-linecap="butt" stroke-opacity="0.33019438" stroke-width="2" target-height="132.37" target-width="40.860016" target-x="225.81" target-y="73.88"></path><path d="M 153.81 176.47 L 153.61 178.56 L 153.09 180.49 L 152.24 182.27 L 151.10 183.88 L 149.73 185.25 L 148.11 186.40 L 146.33 187.25 L 144.41 187.77 L 142.31 187.97 L 140.21 187.77 L 138.29 187.25 L 136.51 186.40 L 134.89 185.25 L 133.52 183.88 L 132.38 182.27 L 131.53 180.49 L 131.00 178.56 L 130.81 176.47 L 131.00 174.37 L 131.53 172.44 L 132.38 170.66 L 133.52 169.05 L 134.89 167.68 L 136.51 166.54 L 138.29 165.69 L 140.21 165.16 L 142.31 164.97 L 144.41 165.16 L 146.33 165.69 L 148.11 166.54 L 149.73 167.68 L 151.10 169.05 L 152.24 170.66 L 153.09 172.44 L 153.61 174.37 L 153.81 176.47 Z" fill="url(#linearGradient-8)" fill-rule="evenodd" group-id="1,2" id="椭圆形" node-id="47" stroke="url(#linearGradient-8)" stroke-linecap="butt" stroke-width="2" target-height="23" target-width="23" target-x="130.81" target-y="164.97"></path><path d="M 185.89 77.75 L 185.89 77.75 L 185.76 76.45 L 185.76 76.45 L 185.13 74.36 L 184.66 73.34 L 184.19 72.51 L 184.19 72.51 L 183.11 71.02 L 183.11 71.02 L 182.01 69.88 L 182.01 69.88 L 180.71 68.94 L 180.18 68.62 L 179.44 68.19 L 176.51 66.49 L 174.98 65.60 L 173.69 64.85 L 170.98 63.27 L 169.62 62.48 L 166.73 60.80 L 165.09 59.85 L 163.72 59.05 L 150.81 51.55 L 137.90 44.06 L 126.60 37.52 L 118.50 32.87 L 115.21 31.04 L 114.13 30.88 L 113.06 31.08 L 109.41 32.90 L 105.20 35.39 L 101.60 37.66 L 99.77 38.82 L 99.78 38.82 L 99.00 39.51 L 98.47 40.59 L 98.24 42.19 L 98.10 92.77 L 98.28 94.45 L 98.81 96.22 L 99.62 97.92 L 100.68 99.48 L 101.94 100.84 L 103.31 101.84 L 167.54 139.16 L 169.14 139.79 L 170.38 139.84 L 171.40 139.43 L 171.26 139.52 L 175.20 137.16 L 179.79 134.34 L 183.63 131.91 L 185.31 130.72 L 185.70 129.31 L 185.76 127.83 L 185.82 105.01 L 185.84 101.43 L 185.85 97.82 L 185.86 94.24 L 185.88 87.95 L 185.89 81.92 L 185.89 79.41 L 185.89 77.75 L 185.89 77.75 Z" fill="#dee8ff" fill-rule="nonzero" group-id="1,2,7,8" id="路径" node-id="50" stroke="none" target-height="108.96" target-width="87.79" target-x="98.1" target-y="30.88"></path><path d="M 115.21 31.04 L 114.13 30.88 L 113.06 31.08 L 109.41 32.90 L 105.20 35.39 L 101.60 37.66 L 99.77 38.82 L 100.46 38.54 L 101.18 38.47 L 102.62 38.76 L 105.47 40.37 L 112.71 44.53 L 122.96 50.44 L 134.79 57.29 L 146.79 64.28 L 157.58 70.61 L 163.72 59.05 L 150.81 51.55 L 137.90 44.06 L 126.60 37.52 L 118.50 32.87 L 115.21 31.04 Z" fill="#4197d8" fill-rule="nonzero" group-id="1,2,7,8" id="路径" node-id="51" stroke="none" target-height="39.730003" target-width="63.950005" target-x="99.77" target-y="30.88"></path><path d="M 162.93 58.59 L 157.13 70.34 L 158.08 70.90 L 159.02 71.44 L 165.10 59.85 L 162.93 58.59 Z" fill="#4197d8" fill-rule="nonzero" group-id="1,2,7,8" id="路径" node-id="52" stroke="none" target-height="12.850002" target-width="7.970001" target-x="157.13" target-y="58.59"></path><path d="M 164.50 59.50 L 158.39 71.08 L 159.63 71.80 L 160.84 72.51 L 166.73 60.80 L 164.50 59.50 Z" fill="#4197d8" fill-rule="nonzero" group-id="1,2,7,8" id="路径" node-id="53" stroke="none" target-height="13.010002" target-width="8.339996" target-x="158.39" target-y="59.5"></path><path d="M 166.00 60.37 L 160.15 72.10 L 161.86 73.09 L 163.47 74.03 L 169.62 62.48 L 166.00 60.37 Z" fill="#4197d8" fill-rule="nonzero" group-id="1,2,7,8" id="路径" node-id="54" stroke="none" target-height="13.66" target-width="9.470001" target-x="160.15" target-y="60.37"></path><path d="M 168.86 62.04 L 162.99 73.75 L 163.81 74.23 L 164.59 74.68 L 170.98 63.27 L 168.86 62.04 Z" fill="#4197d8" fill-rule="nonzero" group-id="1,2,7,8" id="路径" node-id="55" stroke="none" target-height="12.639999" target-width="7.98999" target-x="162.99" target-y="62.04"></path><path d="M 170.34 62.90 L 164.33 74.53 L 165.89 75.43 L 167.25 76.22 L 173.69 64.84 L 170.34 62.90 Z" fill="#4197d8" fill-rule="nonzero" group-id="1,2,7,8" id="路径" node-id="56" stroke="none" target-height="13.32" target-width="9.360001" target-x="164.33" target-y="62.9"></path><path d="M 173.01 64.45 L 167.14 76.17 L 168.53 77.05 L 174.98 65.59 L 173.01 64.45 Z" fill="#4197d8" fill-rule="nonzero" group-id="1,2,7,8" id="路径" node-id="57" stroke="none" target-height="12.600006" target-width="7.8399963" target-x="167.14" target-y="64.45"></path><path d="M 174.25 65.17 L 168.40 76.95 L 169.55 77.94 L 170.22 78.70 L 176.50 66.48 L 174.25 65.17 Z" fill="#4197d8" fill-rule="nonzero" group-id="1,2,7,8" id="路径" node-id="58" stroke="none" target-height="13.529999" target-width="8.100006" target-x="168.4" target-y="65.17"></path><path d="M 175.67 65.99 L 169.82 78.24 L 169.82 78.24 L 169.85 78.27 L 169.85 78.27 L 170.83 79.51 L 171.65 80.87 L 171.92 81.44 L 172.18 82.01 L 179.44 68.18 L 175.67 65.99 Z" fill="#4197d8" fill-rule="nonzero" group-id="1,2,7,8" id="路径" node-id="59" stroke="none" target-height="16.020004" target-width="9.619995" target-x="169.82" target-y="65.99"></path><path d="M 180.18 68.61 L 178.60 67.70 L 171.91 81.40 L 171.91 81.40 L 172.74 83.84 L 180.71 68.93 L 180.18 68.61 L 180.18 68.61 Z" fill="#4197d8" fill-rule="nonzero" group-id="1,2,7,8" id="路径" node-id="60" stroke="none" target-height="16.14" target-width="8.800003" target-x="171.91" target-y="67.7"></path><path d="M 182.01 69.88 L 182.01 69.88 L 180.05 68.54 L 172.58 83.20 L 172.77 83.98 L 172.93 85.72 L 172.92 87.47 L 172.92 90.91 L 183.11 71.02 L 183.11 71.02 L 182.01 69.88 L 182.01 69.88 Z" fill="#4197d8" fill-rule="nonzero" group-id="1,2,7,8" id="路径" node-id="61" stroke="none" target-height="22.370003" target-width="10.529999" target-x="172.58" target-y="68.54"></path><path d="M 182.40 70.24 L 172.92 88.92 L 172.92 90.54 L 172.91 92.64 L 172.91 94.33 L 184.19 72.51 L 183.38 71.37 L 182.40 70.24 Z" fill="#4197d8" fill-rule="nonzero" group-id="1,2,7,8" id="路径" node-id="62" stroke="none" target-height="24.090004" target-width="11.279999" target-x="172.91" target-y="70.24"></path><path d="M 184.66 73.34 L 184.23 72.60 L 183.72 71.81 L 172.91 92.31 L 172.91 93.94 L 172.90 96.01 L 172.90 97.69 L 185.13 74.36 L 184.66 73.34 L 184.66 73.34 Z" fill="#4197d8" fill-rule="nonzero" group-id="1,2,7,8" id="路径" node-id="63" stroke="none" target-height="25.880005" target-width="12.230011" target-x="172.9" target-y="71.81"></path><path d="M 184.78 73.59 L 172.90 95.84 L 172.90 97.36 L 172.90 99.29 L 172.89 100.84 L 185.76 76.45 L 185.38 75.03 L 184.78 73.59 Z" fill="#4197d8" fill-rule="nonzero" group-id="1,2,7,8" id="路径" node-id="64" stroke="none" target-height="27.25" target-width="12.869995" target-x="172.89" target-y="73.59"></path><path d="M 185.89 79.41 L 185.89 77.75 L 185.80 76.70 L 185.54 75.58 L 172.89 99.04 L 172.89 101.42 L 172.88 104.24 L 172.87 106.67 L 185.89 83.26 L 185.89 81.34 L 185.89 79.41 L 185.89 79.41 Z" fill="#4197d8" fill-rule="nonzero" group-id="1,2,7,8" id="路径" node-id="65" stroke="none" target-height="31.089996" target-width="13.020004" target-x="172.87" target-y="75.58"></path><path d="M 185.89 81.92 L 172.87 104.79 L 172.87 107.28 L 172.86 110.18 L 172.86 112.67 L 185.88 89.83 L 185.89 87.34 L 185.89 84.42 L 185.89 81.92 L 185.89 81.92 Z" fill="#4197d8" fill-rule="nonzero" group-id="1,2,7,8" id="路径" node-id="66" stroke="none" target-height="30.75" target-width="13.029999" target-x="172.86" target-y="81.92"></path><path d="M 185.88 87.95 L 172.86 110.82 L 172.85 113.42 L 172.84 116.40 L 172.84 118.93 L 185.86 96.03 L 185.87 93.47 L 185.88 90.51 L 185.88 87.95 L 185.88 87.95 Z" fill="#4197d8" fill-rule="nonzero" group-id="1,2,7,8" id="路径" node-id="67" stroke="none" target-height="30.980003" target-width="13.040009" target-x="172.84" target-y="87.95"></path><path d="M 185.86 94.24 L 172.84 117.11 L 172.84 118.76 L 172.83 120.77 L 172.83 122.38 L 185.85 99.68 L 185.85 98.00 L 185.86 95.91 L 185.86 94.24 Z" fill="#4197d8" fill-rule="nonzero" group-id="1,2,7,8" id="路径" node-id="68" stroke="none" target-height="28.14" target-width="13.029999" target-x="172.83" target-y="94.24"></path><path d="M 185.85 97.81 L 172.82 120.68 L 172.82 123.31 L 172.81 125.86 L 185.84 102.96 L 185.84 100.39 L 185.85 97.81 Z" fill="#4197d8" fill-rule="nonzero" group-id="1,2,7,8" id="路径" node-id="69" stroke="none" target-height="28.050003" target-width="13.040009" target-x="172.81" target-y="97.81"></path><path d="M 185.84 101.42 L 172.82 124.29 L 172.81 125.97 L 172.81 127.99 L 172.81 129.57 L 185.82 107.03 L 185.83 105.31 L 185.83 103.14 L 185.84 101.42 L 185.84 101.42 Z" fill="#4197d8" fill-rule="nonzero" group-id="1,2,7,8" id="路径" node-id="70" stroke="none" target-height="28.15001" target-width="13.029999" target-x="172.81" target-y="101.42"></path><path d="M 185.31 130.72 L 185.70 129.31 L 185.76 127.83 L 185.82 105.01 L 172.81 127.86 L 172.79 133.65 L 172.78 135.99 L 172.78 135.99 L 172.64 137.46 L 172.15 138.64 L 171.26 139.52 L 175.20 137.16 L 179.79 134.34 L 183.63 131.91 L 185.31 130.72 L 185.31 130.72 Z" fill="#4197d8" fill-rule="nonzero" group-id="1,2,7,8" id="路径" node-id="71" stroke="none" target-height="34.510002" target-width="14.560013" target-x="171.26" target-y="105.01"></path><path d="M 167.72 76.49 L 169.09 77.50 L 170.35 78.85 L 171.40 80.41 L 172.22 82.11 L 172.75 83.89 L 172.93 85.57 L 172.78 136.15 L 172.55 137.75 L 172.03 138.83 L 171.24 139.52 L 170.24 139.85 L 169.05 139.76 L 167.54 139.15 L 103.31 101.84 L 101.94 100.83 L 100.68 99.48 L 99.62 97.92 L 98.81 96.22 L 98.28 94.45 L 98.10 92.76 L 98.24 42.18 L 98.47 40.58 L 99.00 39.50 L 99.79 38.81 L 100.79 38.48 L 101.98 38.57 L 103.48 39.18 L 167.72 76.49 Z" fill="url(#linearGradient-9)" fill-rule="nonzero" group-id="1,2,7,8" id="路径" node-id="72" stroke="none" target-height="101.37001" target-width="74.829994" target-x="98.1" target-y="38.48"></path><path d="M 120.34 68.00 L 119.24 65.74 L 117.87 63.64 L 117.56 63.25 L 117.38 63.03 L 116.94 62.51 L 115.62 61.18 L 115.13 60.76 L 114.71 60.43 L 113.89 59.87 L 113.52 59.64 L 113.40 59.57 L 112.37 59.07 L 111.93 58.90 L 111.47 58.76 L 111.00 58.65 L 109.62 58.55 L 109.35 58.58 L 108.87 58.67 L 108.62 58.74 L 107.83 59.09 L 107.38 59.35 L 107.33 59.38 L 106.17 60.06 L 106.10 60.10 L 106.11 60.09 L 105.18 60.84 L 104.46 61.90 L 103.97 63.34 L 103.75 65.29 L 104.03 67.88 L 104.84 70.61 L 106.09 73.22 L 107.71 75.61 L 109.65 77.69 L 111.76 79.24 L 113.46 80.02 L 114.94 80.33 L 116.34 80.24 L 117.52 79.77 L 117.47 79.80 L 117.87 79.57 L 119.12 78.84 L 120.12 78.01 L 120.83 77.00 L 121.28 75.78 L 121.50 74.52 L 121.53 73.24 L 121.18 70.57 L 120.34 68.00 Z" fill="#90d6f4" fill-rule="nonzero" group-id="1,2,7,8" id="路径" node-id="73" stroke="none" target-height="21.780003" target-width="17.779999" target-x="103.75" target-y="58.55"></path><path d="M 107.33 59.38 L 106.17 60.06 L 106.09 60.10 L 106.09 60.10 L 107.52 59.61 L 107.54 59.26 L 107.33 59.38 Z" fill="#90d6f4" fill-rule="nonzero" group-id="1,2,7,8" id="路径" node-id="74" stroke="none" target-height="0.84000015" target-width="1.4500046" target-x="106.09" target-y="59.26"></path><path d="M 107.38 59.35 L 107.38 59.63 L 107.38 59.63 L 108.10 59.56 L 108.05 58.98 L 107.70 59.16 L 107.38 59.35 L 107.38 59.35 Z" fill="#90d6f4" fill-rule="nonzero" group-id="1,2,7,8" id="路径" node-id="75" stroke="none" target-height="0.6500015" target-width="0.7200012" target-x="107.38" target-y="58.98"></path><path d="M 108.62 58.74 L 108.62 58.74 L 107.83 59.09 L 107.83 59.58 L 107.83 59.58 L 109.03 59.63 L 109.09 58.63 L 109.09 58.63 L 108.62 58.74 L 108.62 58.74 Z" fill="#90d6f4" fill-rule="nonzero" group-id="1,2,7,8" id="路径" node-id="76" stroke="none" target-height="1" target-width="1.2599945" target-x="107.83" target-y="58.63"></path><path d="M 108.87 58.67 L 108.87 59.60 L 109.55 59.72 L 109.52 58.56 L 109.52 58.56 L 108.87 58.67 L 108.87 58.67 Z" fill="#90d6f4" fill-rule="nonzero" group-id="1,2,7,8" id="路径" node-id="77" stroke="none" target-height="1.1599998" target-width="0.6800003" target-x="108.87" target-y="58.56"></path><path d="M 109.35 58.58 L 109.35 59.68 L 109.65 59.76 L 109.95 59.84 L 109.83 58.54 L 109.83 58.54 L 109.35 58.58 L 109.35 58.58 Z" fill="#90d6f4" fill-rule="nonzero" group-id="1,2,7,8" id="路径" node-id="78" stroke="none" target-height="1.2999992" target-width="0.5999985" target-x="109.35" target-y="58.54"></path><path d="M 109.62 58.55 L 109.62 59.75 L 109.62 59.75 L 111.42 60.45 L 111.24 58.70 L 111.24 58.70 L 109.62 58.55 L 109.62 58.55 Z" fill="#90d6f4" fill-rule="nonzero" group-id="1,2,7,8" id="路径" node-id="79" stroke="none" target-height="1.9000015" target-width="1.7999954" target-x="109.62" target-y="58.55"></path><path d="M 111.00 58.65 L 111.00 60.24 L 111.32 60.40 L 111.76 60.64 L 111.69 58.83 L 111.69 58.83 L 111.00 58.65 L 111.00 58.65 Z" fill="#90d6f4" fill-rule="nonzero" group-id="1,2,7,8" id="路径" node-id="80" stroke="none" target-height="1.9899979" target-width="0.76000214" target-x="111" target-y="58.65"></path><path d="M 111.46 58.76 L 111.46 60.48 L 111.86 60.71 L 112.26 60.95 L 112.14 58.99 L 111.81 58.86 L 111.46 58.76 L 111.46 58.76 Z" fill="#90d6f4" fill-rule="nonzero" group-id="1,2,7,8" id="路径" node-id="81" stroke="none" target-height="2.1900024" target-width="0.80000305" target-x="111.46" target-y="58.76"></path><path d="M 111.92 58.91 L 111.92 60.74 L 112.33 61.00 L 112.74 61.27 L 112.63 59.19 L 112.28 59.04 L 111.92 58.91 Z" fill="#90d6f4" fill-rule="nonzero" group-id="1,2,7,8" id="路径" node-id="82" stroke="none" target-height="2.3600006" target-width="0.8199997" target-x="111.92" target-y="58.91"></path><path d="M 112.37 59.07 L 112.37 61.02 L 113.05 61.51 L 113.71 62.04 L 113.66 59.72 L 113.66 59.72 L 112.37 59.07 L 112.37 59.07 Z" fill="#90d6f4" fill-rule="nonzero" group-id="1,2,7,8" id="路径" node-id="83" stroke="none" target-height="2.9700012" target-width="1.3399963" target-x="112.37" target-y="59.07"></path><path d="M 113.52 59.64 L 113.40 59.57 L 113.40 61.76 L 113.78 62.09 L 114.16 62.43 L 114.17 60.04 L 113.84 59.84 L 113.52 59.64 Z" fill="#90d6f4" fill-rule="nonzero" group-id="1,2,7,8" id="路径" node-id="84" stroke="none" target-height="2.8600006" target-width="0.76999664" target-x="113.4" target-y="59.57"></path><path d="M 113.89 59.87 L 113.89 62.19 L 114.42 62.70 L 114.94 63.22 L 114.89 60.57 L 114.40 60.21 L 113.89 59.87 Z" fill="#90d6f4" fill-rule="nonzero" group-id="1,2,7,8" id="路径" node-id="85" stroke="none" target-height="3.3500023" target-width="1.050003" target-x="113.89" target-y="59.87"></path><path d="M 114.71 60.44 L 114.71 62.97 L 115.02 63.32 L 115.34 63.66 L 115.35 60.95 L 115.02 60.67 L 114.71 60.44 L 114.71 60.44 Z" fill="#90d6f4" fill-rule="nonzero" group-id="1,2,7,8" id="路径" node-id="86" stroke="none" target-height="3.2200012" target-width="0.6399994" target-x="114.71" target-y="60.44"></path><path d="M 115.13 60.77 L 115.13 63.43 L 115.50 63.85 L 115.86 64.29 L 115.86 61.40 L 115.49 61.07 L 115.13 60.77 Z" fill="#90d6f4" fill-rule="nonzero" group-id="1,2,7,8" id="路径" node-id="87" stroke="none" target-height="3.5200005" target-width="0.73000336" target-x="115.13" target-y="60.77"></path><path d="M 115.62 61.18 L 115.62 64.00 L 116.42 65.07 L 117.17 66.18 L 117.13 62.73 L 117.13 62.73 L 115.62 61.18 L 115.62 61.18 Z" fill="#90d6f4" fill-rule="nonzero" group-id="1,2,7,8" id="路径" node-id="88" stroke="none" target-height="5" target-width="1.5499954" target-x="115.62" target-y="61.18"></path><path d="M 116.94 62.51 L 116.94 65.82 L 117.24 66.31 L 117.54 66.81 L 117.48 63.15 L 116.94 62.51 L 116.94 62.51 Z" fill="#90d6f4" fill-rule="nonzero" group-id="1,2,7,8" id="路径" node-id="89" stroke="none" target-height="4.299999" target-width="0.5999985" target-x="116.94" target-y="62.51"></path><path d="M 117.51 63.25 L 117.38 63.03 L 117.38 66.54 L 117.63 67.15 L 117.86 67.76 L 117.82 63.81 L 117.51 63.25 L 117.51 63.25 Z M 117.44 79.81 L 117.72 79.57 L 117.72 79.53 L 117.72 79.53 L 117.44 79.81 L 117.44 79.81 Z" fill="#90d6f4" fill-rule="nonzero" group-id="1,2,7,8" id="形状" node-id="90" stroke="none" target-height="16.779999" target-width="0.48000336" target-x="117.38" target-y="63.03"></path><path d="M 120.34 68.00 L 120.34 68.00 L 119.24 65.74 L 117.87 63.64 L 117.87 67.42 L 118.55 68.87 L 119.43 71.52 L 119.81 74.28 L 119.76 75.66 L 119.48 77.05 L 118.93 78.33 L 118.04 79.39 L 117.87 79.53 L 117.87 79.57 L 119.12 78.84 L 120.11 78.01 L 120.83 77.00 L 121.28 75.78 L 121.28 75.78 L 121.50 74.52 L 121.53 73.24 L 121.18 70.57 L 120.34 68.00 L 120.34 68.00 Z" fill="#90d6f4" fill-rule="nonzero" group-id="1,2,7,8" id="路径" node-id="91" stroke="none" target-height="15.93" target-width="3.659996" target-x="117.87" target-y="63.64"></path><path d="M 111.81 60.67 L 113.91 62.21 L 115.86 64.29 L 117.48 66.68 L 118.73 69.29 L 119.54 72.02 L 119.81 74.62 L 119.59 76.56 L 119.10 78.01 L 118.38 79.06 L 117.44 79.82 L 116.31 80.25 L 115.04 80.34 L 113.54 80.03 L 111.75 79.24 L 109.65 77.69 L 107.71 75.62 L 106.09 73.22 L 104.83 70.61 L 104.02 67.88 L 103.75 65.29 L 103.97 63.34 L 104.46 61.90 L 105.18 60.84 L 106.12 60.09 L 107.25 59.65 L 108.52 59.57 L 110.02 59.87 L 111.81 60.67 Z" fill="#b6e8fd" fill-rule="nonzero" group-id="1,2,7,8" id="路径" node-id="92" stroke="none" target-height="20.769997" target-width="16.059998" target-x="103.75" target-y="59.57"></path><path d="M 164.00 104.21 L 164.00 104.21 L 163.72 103.20 L 163.08 102.37 L 163.08 102.37 L 162.44 101.92 L 162.42 101.91 L 161.62 101.53 L 160.84 101.21 L 160.07 100.95 L 160.07 100.95 L 158.74 100.63 L 158.61 100.61 L 157.84 100.53 L 157.84 100.53 L 156.33 100.55 L 154.84 100.84 L 153.31 101.41 L 151.86 102.17 L 150.22 103.14 L 150.34 103.07 L 148.57 104.18 L 147.86 104.64 L 147.86 104.64 L 146.87 105.06 L 145.82 105.31 L 145.81 105.31 L 145.81 105.31 L 144.68 105.31 L 143.58 105.03 L 143.58 105.03 L 142.28 104.44 L 142.28 104.44 L 140.44 103.29 L 139.41 102.49 L 136.94 100.21 L 135.75 99.00 L 133.35 96.63 L 131.99 95.35 L 131.19 94.64 L 131.19 94.64 L 127.95 92.11 L 127.38 91.71 L 127.38 91.71 L 125.53 90.53 L 123.59 89.49 L 123.59 89.49 L 121.21 88.58 L 118.72 88.03 L 118.72 88.03 L 116.20 87.89 L 113.68 88.16 L 113.68 88.16 L 111.29 88.79 L 109.02 89.77 L 106.92 90.99 L 106.92 90.99 L 105.86 91.65 L 105.54 92.07 L 105.47 92.60 L 105.77 93.65 L 105.77 93.65 L 106.20 94.29 L 106.79 94.78 L 106.79 94.78 L 107.54 94.93 L 107.54 94.93 L 107.84 94.77 L 107.77 94.82 L 107.77 94.82 L 107.70 94.86 L 109.43 93.85 L 109.43 93.85 L 109.50 93.81 L 109.54 93.78 L 109.54 93.78 L 111.06 93.15 L 112.64 92.69 L 112.64 92.69 L 114.89 92.33 L 117.13 92.33 L 119.38 92.69 L 121.04 93.21 L 122.62 93.92 L 125.60 95.73 L 125.60 95.73 L 128.30 97.78 L 130.82 100.04 L 136.01 105.15 L 138.71 107.34 L 141.74 109.04 L 143.32 109.57 L 144.98 109.73 L 146.64 109.41 L 148.21 108.73 L 148.79 108.41 L 148.74 108.44 L 150.47 107.43 L 151.91 106.52 L 152.87 105.90 L 152.87 105.90 L 154.39 105.26 L 154.39 105.26 L 155.99 104.93 L 157.64 104.96 L 157.64 104.96 L 159.14 105.31 L 160.56 105.89 L 161.16 106.18 L 161.80 106.23 L 161.80 106.23 L 161.92 106.17 L 161.90 106.18 L 162.43 105.87 L 162.80 105.66 L 163.09 105.49 L 163.39 105.31 L 163.39 105.31 L 163.71 105.11 L 163.96 104.70 L 164.00 104.21 L 164.00 104.21 Z" fill="#dee8ff" fill-rule="nonzero" group-id="1,2,7,8" id="路径" node-id="93" stroke="none" target-height="21.840004" target-width="58.53" target-x="105.47" target-y="87.89"></path><path d="M 123.59 89.49 L 123.59 89.49 L 121.21 88.58 L 118.72 88.03 L 118.72 88.03 L 116.20 87.89 L 113.69 88.15 L 113.69 88.15 L 111.30 88.78 L 109.03 89.76 L 106.91 90.98 L 106.69 91.11 L 106.69 91.11 L 108.90 90.04 L 111.25 89.31 L 111.25 89.31 L 113.76 88.93 L 116.30 88.96 L 116.30 88.96 L 118.85 89.41 L 121.30 90.24 L 123.59 91.41 L 125.76 92.79 L 126.82 93.54 L 127.87 94.33 L 127.90 92.06 L 125.78 90.68 L 123.59 89.49 L 123.59 89.49 Z" fill="#90d6f4" fill-rule="nonzero" group-id="1,2,7,8" id="路径" node-id="94" stroke="none" target-height="6.4400024" target-width="21.21" target-x="106.69" target-y="87.89"></path><path d="M 127.96 92.10 L 127.38 91.70 L 127.38 93.96 L 129.89 96.02 L 130.79 96.85 L 131.68 97.69 L 131.63 95.02 L 131.63 95.02 L 127.96 92.10 L 127.96 92.10 Z" fill="#90d6f4" fill-rule="nonzero" group-id="1,2,7,8" id="路径" node-id="95" stroke="none" target-height="5.9900055" target-width="4.2999954" target-x="127.38" target-y="91.7"></path><path d="M 131.99 95.34 L 131.19 94.64 L 131.19 97.22 L 132.46 98.44 L 133.70 99.68 L 133.85 97.10 L 132.90 96.19 L 131.99 95.34 L 131.99 95.34 Z" fill="#90d6f4" fill-rule="nonzero" group-id="1,2,7,8" id="路径" node-id="96" stroke="none" target-height="5.040001" target-width="2.6600037" target-x="131.19" target-y="94.64"></path><path d="M 135.75 99.00 L 133.36 96.63 L 133.36 99.34 L 133.69 99.68 L 135.46 101.46 L 137.32 103.19 L 137.49 100.74 L 136.62 99.87 L 135.75 99.00 L 135.75 99.00 Z" fill="#90d6f4" fill-rule="nonzero" group-id="1,2,7,8" id="路径" node-id="97" stroke="none" target-height="6.560005" target-width="4.130005" target-x="133.36" target-y="96.63"></path><path d="M 139.42 102.49 L 136.95 100.20 L 136.95 102.86 L 137.43 103.28 L 139.04 104.52 L 140.81 105.57 L 141.10 103.74 L 141.10 103.74 L 139.42 102.49 L 139.42 102.49 Z" fill="#90d6f4" fill-rule="nonzero" group-id="1,2,7,8" id="路径" node-id="98" stroke="none" target-height="5.3700027" target-width="4.150009" target-x="136.95" target-y="100.2"></path><path d="M 140.44 103.28 L 140.44 105.38 L 140.44 105.38 L 141.62 105.94 L 141.62 105.94 L 142.80 106.29 L 142.86 104.72 L 142.86 104.72 L 140.44 103.28 L 140.44 103.28 Z" fill="#90d6f4" fill-rule="nonzero" group-id="1,2,7,8" id="路径" node-id="99" stroke="none" target-height="3.0100021" target-width="2.4199982" target-x="140.44" target-y="103.28"></path><path d="M 143.59 105.03 L 143.59 105.03 L 142.28 104.43 L 142.28 106.17 L 142.28 106.17 L 143.83 106.34 L 143.83 106.34 L 144.98 106.11 L 146.07 105.68 L 146.17 105.25 L 146.17 105.25 L 144.86 105.31 L 143.59 105.03 L 143.59 105.03 Z" fill="#90d6f4" fill-rule="nonzero" group-id="1,2,7,8" id="路径" node-id="100" stroke="none" target-height="1.909996" target-width="3.8899994" target-x="142.28" target-y="104.43"></path><path d="M 145.83 105.30 L 145.81 105.30 L 145.81 105.80 L 146.09 105.68 L 148.39 104.36 L 148.62 104.23 L 148.08 104.53 L 146.99 105.02 L 145.83 105.30 L 145.83 105.30 Z" fill="#90d6f4" fill-rule="nonzero" group-id="1,2,7,8" id="路径" node-id="101" stroke="none" target-height="1.5699997" target-width="2.8099976" target-x="145.81" target-y="104.23"></path><path d="M 156.46 101.57 L 156.46 101.57 L 158.14 101.90 L 158.10 100.55 L 158.10 100.55 L 156.46 100.54 L 154.84 100.84 L 153.30 101.41 L 151.85 102.18 L 150.22 103.14 L 150.22 103.14 L 151.67 102.38 L 153.21 101.82 L 153.21 101.82 L 154.82 101.54 L 156.46 101.57 L 156.46 101.57 Z" fill="#90d6f4" fill-rule="nonzero" group-id="1,2,7,8" id="路径" node-id="102" stroke="none" target-height="2.5999985" target-width="7.919998" target-x="150.22" target-y="100.54"></path><path d="M 158.85 102.13 L 158.84 100.65 L 158.34 100.58 L 157.84 100.53 L 157.84 101.82 L 158.35 101.96 L 158.85 102.13 L 158.85 102.13 Z" fill="#90d6f4" fill-rule="nonzero" group-id="1,2,7,8" id="路径" node-id="103" stroke="none" target-height="1.5999985" target-width="1.0100098" target-x="157.84" target-y="100.53"></path><path d="M 159.57 102.40 L 159.94 102.56 L 160.31 102.73 L 160.41 101.05 L 160.41 101.05 L 158.73 100.63 L 158.61 100.61 L 158.61 102.04 L 159.57 102.40 L 159.57 102.40 Z" fill="#90d6f4" fill-rule="nonzero" group-id="1,2,7,8" id="路径" node-id="104" stroke="none" target-height="2.1200027" target-width="1.800003" target-x="158.61" target-y="100.61"></path><path d="M 160.35 102.75 L 160.35 102.75 L 161.00 103.09 L 161.08 101.30 L 160.57 101.11 L 160.07 100.95 L 160.07 102.62 L 160.35 102.75 L 160.35 102.75 Z" fill="#90d6f4" fill-rule="nonzero" group-id="1,2,7,8" id="路径" node-id="105" stroke="none" target-height="2.1399994" target-width="1.0099945" target-x="160.07" target-y="100.95"></path><path d="M 161.04 103.11 L 161.04 103.11 L 161.78 103.87 L 161.93 101.67 L 161.38 101.43 L 160.84 101.21 L 160.84 102.99 L 161.04 103.11 L 161.04 103.11 Z" fill="#90d6f4" fill-rule="nonzero" group-id="1,2,7,8" id="路径" node-id="106" stroke="none" target-height="2.6600037" target-width="1.0899963" target-x="160.84" target-y="101.21"></path><path d="M 161.80 103.90 L 161.80 103.90 L 162.26 105.11 L 162.23 105.71 L 161.90 106.18 L 162.75 105.68 L 162.63 102.02 L 162.13 101.76 L 161.62 101.53 L 161.62 103.65 L 161.80 103.90 L 161.80 103.90 Z" fill="#90d6f4" fill-rule="nonzero" group-id="1,2,7,8" id="路径" node-id="107" stroke="none" target-height="4.6500015" target-width="1.1300049" target-x="161.62" target-y="101.53"></path><path d="M 162.79 105.66 L 163.40 105.30 L 163.27 102.57 L 163.27 102.57 L 162.44 101.92 L 162.41 101.91 L 162.41 105.87 L 162.79 105.66 Z" fill="#90d6f4" fill-rule="nonzero" group-id="1,2,7,8" id="路径" node-id="108" stroke="none" target-height="3.959999" target-width="0.98999023" target-x="162.41" target-y="101.91"></path><path d="M 163.39 105.31 L 163.39 105.31 L 163.70 105.11 L 163.96 104.70 L 164.00 104.21 L 164.00 104.21 L 163.72 103.20 L 163.08 102.37 L 163.08 105.49 L 163.39 105.31 Z" fill="#90d6f4" fill-rule="nonzero" group-id="1,2,7,8" id="路径" node-id="109" stroke="none" target-height="3.119995" target-width="0.91999817" target-x="163.08" target-y="102.37"></path><path d="M 160.92 103.04 L 161.45 103.46 L 161.89 104.02 L 162.18 104.67 L 162.28 105.35 L 162.17 105.88 L 161.79 106.23 L 161.15 106.19 L 160.56 105.89 L 160.56 105.89 L 159.13 105.31 L 157.63 104.96 L 157.63 104.96 L 155.99 104.93 L 154.38 105.26 L 152.75 105.96 L 151.23 106.86 L 148.22 108.74 L 146.65 109.41 L 144.98 109.73 L 143.32 109.57 L 141.74 109.05 L 138.72 107.34 L 136.01 105.15 L 130.82 100.04 L 130.82 100.04 L 128.30 97.77 L 125.60 95.72 L 122.62 93.91 L 121.04 93.20 L 119.38 92.67 L 119.38 92.67 L 117.13 92.31 L 114.89 92.31 L 112.64 92.67 L 110.15 93.49 L 107.86 94.74 L 107.86 94.74 L 107.54 94.92 L 107.54 94.92 L 106.79 94.77 L 106.79 94.77 L 106.20 94.28 L 105.77 93.64 L 105.47 92.59 L 105.54 92.06 L 105.86 91.64 L 105.86 91.64 L 107.83 90.51 L 107.83 90.51 L 110.37 89.54 L 110.37 89.54 L 112.47 89.08 L 114.59 88.90 L 116.74 89.01 L 116.74 89.01 L 118.99 89.45 L 121.15 90.18 L 123.22 91.20 L 123.22 91.20 L 126.10 93.02 L 128.81 95.09 L 131.40 97.41 L 133.87 99.85 L 136.35 102.31 L 139.03 104.52 L 140.50 105.42 L 142.09 106.11 L 143.79 106.32 L 145.48 105.93 L 147.06 105.13 L 148.57 104.16 L 151.51 102.44 L 151.51 102.44 L 153.03 101.87 L 154.63 101.55 L 154.63 101.55 L 156.28 101.55 L 157.91 101.83 L 157.91 101.83 L 159.45 102.35 L 160.92 103.04 L 160.92 103.04 Z" fill="#b6e8fd" fill-rule="nonzero" group-id="1,2,7,8" id="路径" node-id="110" stroke="none" target-height="20.830002" target-width="56.809998" target-x="105.47" target-y="88.9"></path><path d="M 10.00 168.38 L 9.83 169.60 L 9.39 170.64 L 8.68 171.56 L 7.77 172.26 L 6.72 172.70 L 5.50 172.88 L 4.28 172.70 L 3.23 172.26 L 2.32 171.56 L 1.61 170.64 L 1.17 169.60 L 1.00 168.38 L 1.17 167.15 L 1.61 166.11 L 2.32 165.19 L 3.23 164.49 L 4.28 164.05 L 5.50 163.88 L 6.72 164.05 L 7.77 164.49 L 8.68 165.19 L 9.39 166.11 L 9.83 167.15 L 10.00 168.38 Z" fill="none" group-id="1,2" id="椭圆形复制" node-id="111" stroke="url(#linearGradient-8)" stroke-linecap="butt" stroke-width="1" target-height="9" target-width="9" target-x="1" target-y="163.88"></path><path d="M 292.00 60.38 L 291.83 61.60 L 291.39 62.64 L 290.68 63.56 L 289.77 64.26 L 288.72 64.70 L 287.50 64.88 L 286.28 64.70 L 285.23 64.26 L 284.32 63.56 L 283.61 62.64 L 283.17 61.60 L 283.00 60.38 L 283.17 59.15 L 283.61 58.11 L 284.32 57.19 L 285.23 56.49 L 286.28 56.05 L 287.50 55.88 L 288.72 56.05 L 289.77 56.49 L 290.68 57.19 L 291.39 58.11 L 291.83 59.15 L 292.00 60.38 Z" fill="none" group-id="1,2" id="椭圆形复制-7" node-id="112" stroke="url(#linearGradient-8)" stroke-linecap="butt" stroke-width="1" target-height="8.999996" target-width="9" target-x="283" target-y="55.88"></path><path d="M 39.00 5.38 L 38.83 6.60 L 38.39 7.64 L 37.68 8.56 L 36.77 9.26 L 35.72 9.70 L 34.50 9.88 L 33.28 9.70 L 32.23 9.26 L 31.32 8.56 L 30.61 7.64 L 30.17 6.60 L 30.00 5.38 L 30.17 4.15 L 30.61 3.11 L 31.32 2.19 L 32.23 1.49 L 33.28 1.05 L 34.50 0.88 L 35.72 1.05 L 36.77 1.49 L 37.68 2.19 L 38.39 3.11 L 38.83 4.15 L 39.00 5.38 Z" fill="none" group-id="1,2" id="椭圆形复制-8" node-id="113" stroke="url(#linearGradient-8)" stroke-linecap="butt" stroke-width="1" target-height="9" target-width="9" target-x="30" target-y="0.88"></path><path d="M 5.50 172.88 L 5.50 222.98" fill="none" group-id="1,2" id="直线复制" node-id="114" stroke="none" target-height="50.09999" target-width="0" target-x="5.5" target-y="172.88"></path><path d="M 287.50 64.88 L 287.50 114.98" fill="none" group-id="1,2" id="直线复制-6" node-id="115" stroke="none" target-height="50.100006" target-width="0" target-x="287.5" target-y="64.88"></path><path d="M 34.50 9.88 L 34.50 59.98" fill="none" group-id="1,2" id="直线复制-7" node-id="116" stroke="none" target-height="50.1" target-width="0" target-x="34.5" target-y="9.88"></path></g></g></svg>